# xmcd
#
# Track frame offsets:
#	150
#	11470
#	23058
#	33325
#	46518
#	57438
#	67353
#	80433
#	90183
#	102028
#	113958
#	126223
#	137458
#	147298
#
# Disc length: 2112 seconds
#
# Revision: 0
# Processed by: cddbd v1.4PL0 Copyright (c) Steve Scherf et al.
# Submitted via: EasyCDDAExtractor 4.6.9.1
#
DISCID=ae083e0e
DTITLE=Dolly Parton and Friends - Gold
DYEAR=1900
DGENRE=Country
TTITLE0=Makin' Believe
TTITLE1=Single Girl
TTITLE2=Release Me
TTITLE3=Daddy
TTITLE4=Honky Tonk Angels
TTITLE5=What A Woman Won't Do
TTITLE6=Little Blossom
TTITLE7=Sticks And Stones
TTITLE8=Letter To Heaven
TTITLE9=Bring Him Safely Home To Me
TTITLE10=Two Little Orphans
TTITLE11=Wishfull Thinking
TTITLE12=Girl Left Alone
TTITLE13=I Will Follow Him
EXTD=Gold 094\n
EXTT0=(Work]\n
EXTT1=(Sharp]\n
EXTT2=(Miller/Stevenson]\n
EXTT3=(Fargo]\n
EXTT4=(Miller]\n
EXTT5=(Unknown]\n
EXTT6=(Jeffe]\n
EXTT7=(Crawford]\n
EXTT8=(Jeffe]\n
EXTT9=(Sherril/Butler]\n
EXTT10=(Jeffe]\n
EXTT11=(Stewart]\n
EXTT12=(Paton/Owens]\n
EXTT13=(Gimbel/Altman/Stole/Del Roma]\n
PLAYORDER=
